<svg width="32" height="32" viewBox="0 0 32 32" xmlns="http://www.w3.org/2000/svg">
  <defs>
    <linearGradient id="bg" x1="0%" y1="0%" x2="100%" y2="100%">
      <stop offset="0%" stop-color="#8b5cf6"/>
      <stop offset="100%" stop-color="#6366f1"/>
    </linearGradient>
  </defs>
  
  <!-- Background -->
  <rect width="32" height="32" rx="6" fill="url(#bg)"/>
  
  <!-- Brain icon simplified -->
  <g transform="translate(16, 16)" fill="#ffffff">
    <path d="M-9 0 C-10 -6 -8 -10 -4 -10 C-2 -11 0 -10 0 -8 C0 -10 2 -11 4 -10 C8 -10 10 -6 9 0 C10 5 8 8 4 9 C2 10 -2 10 -4 9 C-8 8 -10 5 -9 0Z" fill="#ffffff"/>
    
    <!-- Pulse -->
    <path d="M-5 6 L-2 6 L0 3 L2 8 L4 4 L6 6" 
          stroke="#a78bfa" stroke-width="1.5" fill="none" stroke-linecap="round" stroke-linejoin="round"/>
  </g>
</svg>
